<mxfile host="app.diagrams.net" modified="2024-04-15T22:12:11.302Z" agent="Mozilla/5.0 (Windows NT 10.0; Win64; x64) AppleWebKit/537.36 (KHTML, like Gecko) Chrome/123.0.0.0 Safari/537.36 Edg/123.0.0.0" etag="0NWJapKMG-E2-1bnqh8j" version="24.2.2" type="device">
  <diagram name="Page-1" id="jwQj_cAi-5qmBRumcOff">
    <mxGraphModel dx="1358" dy="715" grid="1" gridSize="10" guides="1" tooltips="1" connect="1" arrows="1" fold="1" page="1" pageScale="1" pageWidth="827" pageHeight="1169" math="0" shadow="0">
      <root>
        <mxCell id="0" />
        <mxCell id="1" parent="0" />
        <mxCell id="kF6794fWTBVAiB2AYzQm-8" value="GCODE MQTT" style="rounded=0;whiteSpace=wrap;html=1;" vertex="1" parent="1">
          <mxGeometry x="80" y="78" width="120" height="222" as="geometry" />
        </mxCell>
        <mxCell id="kF6794fWTBVAiB2AYzQm-1" value="Printer" style="text;html=1;align=center;verticalAlign=middle;resizable=0;points=[];autosize=1;strokeColor=none;fillColor=none;" vertex="1" parent="1">
          <mxGeometry x="110" y="88" width="60" height="30" as="geometry" />
        </mxCell>
        <mxCell id="kF6794fWTBVAiB2AYzQm-13" style="edgeStyle=orthogonalEdgeStyle;rounded=0;orthogonalLoop=1;jettySize=auto;html=1;shape=link;" edge="1" parent="1" source="kF6794fWTBVAiB2AYzQm-2" target="kF6794fWTBVAiB2AYzQm-3">
          <mxGeometry relative="1" as="geometry" />
        </mxCell>
        <mxCell id="kF6794fWTBVAiB2AYzQm-2" value="HA Server" style="text;html=1;align=center;verticalAlign=middle;resizable=0;points=[];autosize=1;strokeColor=none;fillColor=none;" vertex="1" parent="1">
          <mxGeometry x="380" y="88" width="80" height="30" as="geometry" />
        </mxCell>
        <mxCell id="kF6794fWTBVAiB2AYzQm-3" value="BambuHMI" style="text;html=1;align=center;verticalAlign=middle;resizable=0;points=[];autosize=1;strokeColor=none;fillColor=none;" vertex="1" parent="1">
          <mxGeometry x="500" y="88" width="80" height="30" as="geometry" />
        </mxCell>
        <mxCell id="kF6794fWTBVAiB2AYzQm-4" value="BambuHMI Commander" style="text;html=1;align=center;verticalAlign=middle;resizable=0;points=[];autosize=1;strokeColor=none;fillColor=none;" vertex="1" parent="1">
          <mxGeometry x="470" y="160" width="150" height="30" as="geometry" />
        </mxCell>
        <mxCell id="kF6794fWTBVAiB2AYzQm-17" style="edgeStyle=orthogonalEdgeStyle;rounded=0;orthogonalLoop=1;jettySize=auto;html=1;" edge="1" parent="1" source="kF6794fWTBVAiB2AYzQm-5" target="kF6794fWTBVAiB2AYzQm-7">
          <mxGeometry relative="1" as="geometry" />
        </mxCell>
        <mxCell id="kF6794fWTBVAiB2AYzQm-5" value="BambuHMI G-Code Converter" style="text;html=1;align=center;verticalAlign=middle;resizable=0;points=[];autosize=1;strokeColor=none;fillColor=none;" vertex="1" parent="1">
          <mxGeometry x="450" y="250" width="180" height="30" as="geometry" />
        </mxCell>
        <mxCell id="kF6794fWTBVAiB2AYzQm-6" value="RealVNC" style="text;html=1;align=center;verticalAlign=middle;resizable=0;points=[];autosize=1;strokeColor=none;fillColor=none;" vertex="1" parent="1">
          <mxGeometry x="505" y="190" width="70" height="30" as="geometry" />
        </mxCell>
        <mxCell id="kF6794fWTBVAiB2AYzQm-7" value="MobaXTERM&lt;div&gt;Create .SH file from GCODE Conversion&lt;/div&gt;" style="text;html=1;align=center;verticalAlign=middle;resizable=0;points=[];autosize=1;strokeColor=none;fillColor=none;" vertex="1" parent="1">
          <mxGeometry x="420" y="295" width="240" height="40" as="geometry" />
        </mxCell>
        <mxCell id="kF6794fWTBVAiB2AYzQm-10" style="edgeStyle=orthogonalEdgeStyle;rounded=0;orthogonalLoop=1;jettySize=auto;html=1;endArrow=classic;endFill=1;strokeColor=default;shape=link;" edge="1" parent="1" source="kF6794fWTBVAiB2AYzQm-9" target="kF6794fWTBVAiB2AYzQm-2">
          <mxGeometry relative="1" as="geometry" />
        </mxCell>
        <mxCell id="kF6794fWTBVAiB2AYzQm-9" value="MQTT PUSH / PULL&lt;div&gt;REPORTS&lt;/div&gt;" style="text;html=1;align=center;verticalAlign=middle;resizable=0;points=[];autosize=1;strokeColor=none;fillColor=none;" vertex="1" parent="1">
          <mxGeometry x="75" y="113" width="130" height="40" as="geometry" />
        </mxCell>
        <mxCell id="kF6794fWTBVAiB2AYzQm-12" style="edgeStyle=orthogonalEdgeStyle;rounded=0;orthogonalLoop=1;jettySize=auto;html=1;" edge="1" parent="1" source="kF6794fWTBVAiB2AYzQm-11" target="kF6794fWTBVAiB2AYzQm-2">
          <mxGeometry relative="1" as="geometry" />
        </mxCell>
        <mxCell id="kF6794fWTBVAiB2AYzQm-11" value="LiveCamera" style="text;html=1;align=center;verticalAlign=middle;resizable=0;points=[];autosize=1;strokeColor=none;fillColor=none;" vertex="1" parent="1">
          <mxGeometry x="90" y="148" width="90" height="30" as="geometry" />
        </mxCell>
        <mxCell id="kF6794fWTBVAiB2AYzQm-14" style="edgeStyle=orthogonalEdgeStyle;rounded=0;orthogonalLoop=1;jettySize=auto;html=1;entryX=0.467;entryY=0.008;entryDx=0;entryDy=0;entryPerimeter=0;" edge="1" parent="1" source="kF6794fWTBVAiB2AYzQm-3" target="kF6794fWTBVAiB2AYzQm-4">
          <mxGeometry relative="1" as="geometry" />
        </mxCell>
        <mxCell id="kF6794fWTBVAiB2AYzQm-15" style="edgeStyle=orthogonalEdgeStyle;rounded=0;orthogonalLoop=1;jettySize=auto;html=1;entryX=1.025;entryY=0.439;entryDx=0;entryDy=0;entryPerimeter=0;" edge="1" parent="1" source="kF6794fWTBVAiB2AYzQm-4" target="kF6794fWTBVAiB2AYzQm-8">
          <mxGeometry relative="1" as="geometry" />
        </mxCell>
        <mxCell id="kF6794fWTBVAiB2AYzQm-16" style="edgeStyle=orthogonalEdgeStyle;rounded=0;orthogonalLoop=1;jettySize=auto;html=1;entryX=1.04;entryY=0.572;entryDx=0;entryDy=0;entryPerimeter=0;shape=link;" edge="1" parent="1" source="kF6794fWTBVAiB2AYzQm-6" target="kF6794fWTBVAiB2AYzQm-8">
          <mxGeometry relative="1" as="geometry" />
        </mxCell>
        <mxCell id="kF6794fWTBVAiB2AYzQm-18" style="edgeStyle=orthogonalEdgeStyle;rounded=0;orthogonalLoop=1;jettySize=auto;html=1;entryX=0.994;entryY=0.77;entryDx=0;entryDy=0;entryPerimeter=0;" edge="1" parent="1" source="kF6794fWTBVAiB2AYzQm-7" target="kF6794fWTBVAiB2AYzQm-4">
          <mxGeometry relative="1" as="geometry">
            <Array as="points">
              <mxPoint x="680" y="315" />
              <mxPoint x="680" y="183" />
            </Array>
          </mxGeometry>
        </mxCell>
        <mxCell id="kF6794fWTBVAiB2AYzQm-19" value="Services" style="text;html=1;align=center;verticalAlign=middle;resizable=0;points=[];autosize=1;strokeColor=none;fillColor=none;" vertex="1" parent="1">
          <mxGeometry x="365" y="28" width="70" height="30" as="geometry" />
        </mxCell>
      </root>
    </mxGraphModel>
  </diagram>
</mxfile>
